HIERARCHY
ROOT Hips
{
	OFFSET 0.053599 88.859886 3.107447
	CHANNELS 6 Xposition Yposition Zposition Zrotation Yrotation Xrotation 
	JOINT Spine
	{
		OFFSET -0.000000 8.814246 -2.080107
		CHANNELS 3 Zrotation Yrotation Xrotation
		JOINT Spine1
		{
			OFFSET 0.000000 8.844141 0.000000
			CHANNELS 3 Zrotation Yrotation Xrotation
			JOINT Spine2
			{
				OFFSET -0.000000 11.682268 0.000000
				CHANNELS 3 Zrotation Yrotation Xrotation
				JOINT Spine3
				{
					OFFSET 0.000000 11.746700 0.000000
					CHANNELS 3 Zrotation Yrotation Xrotation
					JOINT Neck
					{
						OFFSET -0.000000 17.658264 -0.000000
						CHANNELS 3 Zrotation Yrotation Xrotation
						JOINT Neck1
						{
							OFFSET -0.000000 5.101515 -0.000000
							CHANNELS 3 Zrotation Yrotation Xrotation
							JOINT Head
							{
								OFFSET 0.000000 5.101515 0.000000
								CHANNELS 3 Zrotation Yrotation Xrotation
								JOINT HeadEnd
								{
									OFFSET 0.000000 11.655085 0.000000
									CHANNELS 3 Zrotation Yrotation Xrotation
									End Site
									{
										OFFSET 0.000000 0.000000 0.000000
									}
								}
							}
						}
					}
					JOINT RightShoulder
					{
						OFFSET -2.625389 11.175210 0.000000
						CHANNELS 3 Zrotation Yrotation Xrotation
						JOINT RightArm
						{
							OFFSET -0.000000 10.434715 -0.000000
							CHANNELS 3 Zrotation Yrotation Xrotation
							JOINT RightForeArm
							{
								OFFSET -0.000000 29.628420 0.000000
								CHANNELS 3 Zrotation Yrotation Xrotation
								JOINT RightHand
								{
									OFFSET -0.000000 22.857611 0.000000
									CHANNELS 3 Zrotation Yrotation Xrotation
									JOINT RightHandThumb1
									{
										OFFSET -2.867323 3.959563 2.944291
										CHANNELS 3 Zrotation Yrotation Xrotation
										JOINT RightHandThumb2
										{
											OFFSET 0.000000 3.350399 0.000000
											CHANNELS 3 Zrotation Yrotation Xrotation
											JOINT RightHandThumb3
											{
												OFFSET 0.000000 3.756509 -0.000000
												CHANNELS 3 Zrotation Yrotation Xrotation
												JOINT RightHandThumb4
												{
													OFFSET 0.000000 3.147345 0.000000
													CHANNELS 3 Zrotation Yrotation Xrotation
													End Site
													{
														OFFSET 0.000000 0.000000 0.000000
													}
												}
											}
										}
									}
									JOINT RightHandIndex1
									{
										OFFSET -0.086752 10.030893 2.345280
										CHANNELS 3 Zrotation Yrotation Xrotation
										JOINT RightHandIndex2
										{
											OFFSET -0.000000 4.061090 0.000000
											CHANNELS 3 Zrotation Yrotation Xrotation
											JOINT RightHandIndex3
											{
												OFFSET -0.000000 3.248873 0.000000
												CHANNELS 3 Zrotation Yrotation Xrotation
												JOINT RightHandIndex4
												{
													OFFSET 0.000000 2.639709 -0.000000
													CHANNELS 3 Zrotation Yrotation Xrotation
													End Site
													{
														OFFSET 0.000000 0.000000 0.000000
													}
												}
											}
										}
									}
									JOINT RightHandMiddle1
									{
										OFFSET 0.104102 9.502952 0.006768
										CHANNELS 3 Zrotation Yrotation Xrotation
										JOINT RightHandMiddle2
										{
											OFFSET 0.000000 4.568727 0.000000
											CHANNELS 3 Zrotation Yrotation Xrotation
											JOINT RightHandMiddle3
											{
												OFFSET 0.000000 3.654981 -0.000000
												CHANNELS 3 Zrotation Yrotation Xrotation
												JOINT RightHandMiddle4
												{
													OFFSET -0.000000 2.741236 -0.000000
													CHANNELS 3 Zrotation Yrotation Xrotation
													End Site
													{
														OFFSET 0.000000 0.000000 0.000000
													}
												}
											}
										}
									}
									JOINT RightHandRing1
									{
										OFFSET 0.086752 8.921708 -2.267442
										CHANNELS 3 Zrotation Yrotation Xrotation
										JOINT RightHandRing2
										{
											OFFSET -0.000000 4.061090 0.000000
											CHANNELS 3 Zrotation Yrotation Xrotation
											JOINT RightHandRing3
											{
												OFFSET 0.000000 3.654981 -0.000000
												CHANNELS 3 Zrotation Yrotation Xrotation
												JOINT RightHandRing4
												{
													OFFSET 0.000000 2.741236 -0.000000
													CHANNELS 3 Zrotation Yrotation Xrotation
													End Site
													{
														OFFSET 0.000000 0.000000 0.000000
													}
												}
											}
										}
									}
									JOINT RightHandPinky1
									{
										OFFSET -0.173504 7.976997 -4.467199
										CHANNELS 3 Zrotation Yrotation Xrotation
										JOINT RightHandPinky2
										{
											OFFSET 0.000000 3.350399 -0.000000
											CHANNELS 3 Zrotation Yrotation Xrotation
											JOINT RightHandPinky3
											{
												OFFSET -0.000000 2.842763 0.000000
												CHANNELS 3 Zrotation Yrotation Xrotation
												JOINT RightHandPinky4
												{
													OFFSET -0.000000 2.639709 0.000000
													CHANNELS 3 Zrotation Yrotation Xrotation
													End Site
													{
														OFFSET 0.000000 0.000000 0.000000
													}
												}
											}
										}
									}
									JOINT RightForeArmEnd
									{
										OFFSET 0.000000 0.000000 0.000000
										CHANNELS 3 Zrotation Yrotation Xrotation
										End Site
										{
											OFFSET 0.000000 0.000000 0.000000
										}
									}
								}
								JOINT RightArmEnd
								{
									OFFSET 0.000000 0.000000 0.000000
									CHANNELS 3 Zrotation Yrotation Xrotation
									End Site
									{
										OFFSET 0.000000 0.000000 0.000000
									}
								}
							}
						}
					}
					JOINT LeftShoulder
					{
						OFFSET 2.625389 11.175210 0.000000
						CHANNELS 3 Zrotation Yrotation Xrotation
						JOINT LeftArm
						{
							OFFSET 0.000000 10.813635 -0.000000
							CHANNELS 3 Zrotation Yrotation Xrotation
							JOINT LeftForeArm
							{
								OFFSET 0.000000 28.724781 0.000000
								CHANNELS 3 Zrotation Yrotation Xrotation
								JOINT LeftHand
								{
									OFFSET 0.644384 25.716167 -0.328871
									CHANNELS 3 Zrotation Yrotation Xrotation
									JOINT LeftHandThumb1
									{
										OFFSET 2.867323 3.959563 2.944291
										CHANNELS 3 Zrotation Yrotation Xrotation
										JOINT LeftHandThumb2
										{
											OFFSET 0.000000 3.350399 0.000000
											CHANNELS 3 Zrotation Yrotation Xrotation
											JOINT LeftHandThumb3
											{
												OFFSET -0.000000 3.756509 0.000000
												CHANNELS 3 Zrotation Yrotation Xrotation
												JOINT LeftHandThumb4
												{
													OFFSET -0.000000 3.100000 0.000000
													CHANNELS 3 Zrotation Yrotation Xrotation
													End Site
													{
														OFFSET 0.000000 0.000000 0.000000
													}
												}
											}
										}
									}
									JOINT LeftHandIndex1
									{
										OFFSET 0.086752 10.030893 2.345280
										CHANNELS 3 Zrotation Yrotation Xrotation
										JOINT LeftHandIndex2
										{
											OFFSET -0.000000 4.061090 -0.000000
											CHANNELS 3 Zrotation Yrotation Xrotation
											JOINT LeftHandIndex3
											{
												OFFSET 0.000000 3.248873 -0.000000
												CHANNELS 3 Zrotation Yrotation Xrotation
												JOINT LeftHandIndex4
												{
													OFFSET 0.000000 2.639709 -0.000000
													CHANNELS 3 Zrotation Yrotation Xrotation
													End Site
													{
														OFFSET 0.000000 0.000000 0.000000
													}
												}
											}
										}
									}
									JOINT LeftHandMiddle1
									{
										OFFSET -0.104102 9.502952 0.006768
										CHANNELS 3 Zrotation Yrotation Xrotation
										JOINT LeftHandMiddle2
										{
											OFFSET -0.000000 4.568727 -0.000000
											CHANNELS 3 Zrotation Yrotation Xrotation
											JOINT LeftHandMiddle3
											{
												OFFSET 0.000000 3.654981 0.000000
												CHANNELS 3 Zrotation Yrotation Xrotation
												JOINT LeftHandMiddle4
												{
													OFFSET 0.000000 2.741236 -0.000000
													CHANNELS 3 Zrotation Yrotation Xrotation
													End Site
													{
														OFFSET 0.000000 0.000000 0.000000
													}
												}
											}
										}
									}
									JOINT LeftHandRing1
									{
										OFFSET -0.086752 8.921708 -2.267442
										CHANNELS 3 Zrotation Yrotation Xrotation
										JOINT LeftHandRing2
										{
											OFFSET 0.000000 4.061090 0.000000
											CHANNELS 3 Zrotation Yrotation Xrotation
											JOINT LeftHandRing3
											{
												OFFSET 0.000000 3.654981 0.000000
												CHANNELS 3 Zrotation Yrotation Xrotation
												JOINT LeftHandRing4
												{
													OFFSET 0.000000 2.741236 0.000000
													CHANNELS 3 Zrotation Yrotation Xrotation
													End Site
													{
														OFFSET 0.000000 0.000000 0.000000
													}
												}
											}
										}
									}
									JOINT LeftHandPinky1
									{
										OFFSET 0.173504 7.976997 -4.467199
										CHANNELS 3 Zrotation Yrotation Xrotation
										JOINT LeftHandPinky2
										{
											OFFSET -0.000000 3.350399 -0.000000
											CHANNELS 3 Zrotation Yrotation Xrotation
											JOINT LeftHandPinky3
											{
												OFFSET 0.000000 2.842763 0.000000
												CHANNELS 3 Zrotation Yrotation Xrotation
												JOINT LeftHandPinky4
												{
													OFFSET -0.000000 2.639709 -0.000000
													CHANNELS 3 Zrotation Yrotation Xrotation
													End Site
													{
														OFFSET 0.000000 0.000000 0.000000
													}
												}
											}
										}
									}
									JOINT LeftForeArmEnd
									{
										OFFSET 0.000000 0.000000 0.000000
										CHANNELS 3 Zrotation Yrotation Xrotation
										End Site
										{
											OFFSET 0.000000 0.000000 0.000000
										}
									}
								}
								JOINT LeftArmEnd
								{
									OFFSET 0.000000 0.000000 0.000000
									CHANNELS 3 Zrotation Yrotation Xrotation
									End Site
									{
										OFFSET 0.000000 0.000000 0.000000
									}
								}
							}
						}
					}
				}
			}
		}
	}
	JOINT RightUpLeg
	{
		OFFSET -11.289943 0.000000 0.000000
		CHANNELS 3 Zrotation Yrotation Xrotation
		JOINT RightLeg
		{
			OFFSET 0.000000 -38.200325 0.000000
			CHANNELS 3 Zrotation Yrotation Xrotation
			JOINT RightFoot
			{
				OFFSET -0.000000 -39.900856 -0.000000
				CHANNELS 3 Zrotation Yrotation Xrotation
				JOINT RightToeBase
				{
					OFFSET 0.000000 0.000000 15.261641
					CHANNELS 3 Zrotation Yrotation Xrotation
					JOINT RightToeBaseEnd
					{
						OFFSET 0.000000 0.000000 7.370709
						CHANNELS 3 Zrotation Yrotation Xrotation
						End Site
						{
							OFFSET 0.000000 0.000000 0.000000
						}
					}
				}
				JOINT RightLegEnd
				{
					OFFSET 0.000000 0.000000 0.000000
					CHANNELS 3 Zrotation Yrotation Xrotation
					End Site
					{
						OFFSET 0.000000 0.000000 0.000000
					}
				}
			}
			JOINT RightUpLegEnd
			{
				OFFSET 0.000000 0.000000 0.000000
				CHANNELS 3 Zrotation Yrotation Xrotation
				End Site
				{
					OFFSET 0.000000 0.000000 0.000000
				}
			}
		}
	}
	JOINT LeftUpLeg
	{
		OFFSET 11.315661 -0.000000 0.000000
		CHANNELS 3 Zrotation Yrotation Xrotation
		JOINT LeftLeg
		{
			OFFSET -0.000000 -38.200325 -0.000000
			CHANNELS 3 Zrotation Yrotation Xrotation
			JOINT LeftFoot
			{
				OFFSET 0.000000 -39.900856 -0.000000
				CHANNELS 3 Zrotation Yrotation Xrotation
				JOINT LeftToeBase
				{
					OFFSET -0.000000 -0.000000 15.261641
					CHANNELS 3 Zrotation Yrotation Xrotation
					JOINT LeftToeBaseEnd
					{
						OFFSET 0.000000 -0.000000 7.539996
						CHANNELS 3 Zrotation Yrotation Xrotation
						End Site
						{
							OFFSET 0.000000 0.000000 0.000000
						}
					}
				}
				JOINT LeftLegEnd
				{
					OFFSET 0.000000 0.000000 0.000000
					CHANNELS 3 Zrotation Yrotation Xrotation
					End Site
					{
						OFFSET 0.000000 0.000000 0.000000
					}
				}
			}
			JOINT LeftUpLegEnd
			{
				OFFSET 0.000000 0.000000 0.000000
				CHANNELS 3 Zrotation Yrotation Xrotation
				End Site
				{
					OFFSET 0.000000 0.000000 0.000000
				}
			}
		}
	}
}
MOTION
Frames: 4
Frame Time: 0.016667
0.262359 88.887146 2.934505 -0.387937 -1.142497 -9.185744 1.022080 0.074542 7.027427 -0.622515 0.201602 2.496957 0.390164 -1.090055 3.184652 -0.726971 0.114476 3.762619 1.094007 1.406756 4.149384 0.439131 2.058394 -3.517764 -0.785849 -0.867639 -18.973118 0.000000 0.000000 0.000000 92.930344 -0.307831 9.694950 66.507294 -27.312454 3.682485 0.340016 15.434933 23.340740 5.408057 11.531817 -6.567081 19.699080 30.181143 62.284916 -8.197237 -11.822642 -19.913042 -6.113308 -7.839928 -13.823007 0.000000 0.000000 0.000000 11.647091 -10.891379 0.777110 9.680758 0.400487 1.130543 9.476232 -0.040883 1.098595 0.000000 0.000000 0.000000 10.751668 -5.349525 -0.216199 8.250937 0.456292 0.443532 8.751176 -0.034200 0.382587 0.000000 0.000000 0.000000 10.693788 2.568240 -0.154375 8.375758 -0.929578 -0.729177 8.410794 0.034049 -0.508880 0.000000 0.000000 0.000000 9.275751 11.132368 -1.232485 7.594223 -1.750712 -2.203880 7.440010 0.195825 -1.860475 0.000000 0.000000 0.000000 0.000000 0.000000 0.000000 0.000000 0.000000 0.000000 -89.643242 0.070705 5.833436 -72.472694 16.220360 -5.768764 -0.854875 -11.283066 46.739536 1.943418 -19.005102 -14.174472 -18.327871 -30.595381 63.453915 6.884770 9.215159 -15.964931 5.011724 6.222878 -11.262186 0.000000 0.000000 0.000000 -4.542025 -8.131119 6.090819 -4.474862 0.410949 -0.968538 -4.480233 -0.047894 -0.920360 0.000000 0.000000 0.000000 -4.689494 -2.750015 3.117555 -4.384717 0.453328 -0.427711 -4.414087 -0.034058 -0.339281 0.000000 0.000000 0.000000 -7.747226 5.632722 0.012444 -5.890414 -0.949535 0.687202 -5.990186 0.028642 0.539621 0.000000 0.000000 0.000000 -10.780677 14.633507 -3.839617 -7.323440 -1.770819 2.323814 -7.090644 0.211670 2.037360 0.000000 0.000000 0.000000 0.000000 0.000000 0.000000 0.000000 0.000000 0.000000 -0.205686 -9.250148 13.109394 -0.048914 -0.653133 5.059350 -2.719004 -8.363397 17.963198 -0.774544 0.777932 -18.803446 0.000000 0.000000 0.000000 0.000000 0.000000 0.000000 0.000000 0.000000 0.000000 -1.370165 -6.196609 8.025814 0.064892 0.331058 9.362971 4.041349 -0.346365 17.435814 0.369619 -0.450249 -20.837542 0.000000 0.000000 0.000000 0.000000 0.000000 0.000000 0.000000 0.000000 0.000000 
0.263524 88.892685 2.940018 -0.373543 -1.194026 -9.200766 1.005369 0.077776 7.051949 -0.615406 0.195164 2.471533 0.375340 -1.094975 3.208257 -0.732853 0.103884 3.748286 1.075150 1.406401 4.165601 0.429067 2.051184 -3.505040 -0.786407 -0.870351 -18.930531 0.000000 0.000000 0.000000 92.968781 -0.315418 9.715074 66.375702 -27.437874 3.736420 0.335450 15.403717 23.394800 5.456344 11.408924 -6.600286 19.708153 30.177401 62.272198 -8.209192 -11.843189 -19.948206 -6.122571 -7.855470 -13.846686 0.000000 0.000000 0.000000 11.772705 -10.901590 0.697662 9.702610 0.395713 1.139066 9.499413 -0.045430 1.107484 0.000000 0.000000 0.000000 10.880684 -5.367549 -0.283633 8.282750 0.454368 0.448826 8.788100 -0.036157 0.387360 0.000000 0.000000 0.000000 10.836660 2.541983 -0.201181 8.430038 -0.927142 -0.733815 8.463107 0.035866 -0.512316 0.000000 0.000000 0.000000 9.417856 11.104443 -1.265976 7.658500 -1.744320 -2.216092 7.501167 0.200485 -1.871660 0.000000 0.000000 0.000000 0.000000 0.000000 0.000000 0.000000 0.000000 0.000000 -89.639702 0.059960 5.863672 -72.495621 16.316936 -5.838492 -0.881926 -11.169574 46.729958 1.865942 -19.000746 -14.243579 -18.326061 -30.594912 63.454067 6.886118 9.218842 -15.961511 5.013550 6.224710 -11.265621 0.000000 0.000000 0.000000 -4.511202 -8.127838 6.008874 -4.413615 0.404266 -0.988819 -4.423368 -0.053951 -0.937852 0.000000 0.000000 0.000000 -4.650251 -2.754542 3.050038 -4.323724 0.450502 -0.434643 -4.347197 -0.036221 -0.345752 0.000000 0.000000 0.000000 -7.676886 5.618045 -0.042674 -5.815329 -0.946864 0.694872 -5.910693 0.030652 0.545529 0.000000 0.000000 0.000000 -10.698812 14.610959 -3.875153 -7.245600 -1.763751 2.335962 -7.017825 0.217359 2.050566 0.000000 0.000000 0.000000 0.000000 0.000000 0.000000 0.000000 0.000000 0.000000 -0.236925 -9.253990 13.136450 -0.049264 -0.654459 5.025216 -2.701674 -8.356982 17.970543 -0.776396 0.780306 -18.802038 0.000000 0.000000 0.000000 0.000000 0.000000 0.000000 0.000000 0.000000 0.000000 -1.399715 -6.171915 8.023561 0.064571 0.332116 9.329694 4.063210 -0.322990 17.471748 0.367984 -0.448379 -20.848486 0.000000 0.000000 0.000000 0.000000 0.000000 0.000000 0.000000 0.000000 0.000000 
0.265819 88.898720 2.946948 -0.359578 -1.246981 -9.211372 0.991896 0.079572 7.070601 -0.613411 0.188546 2.444924 0.366351 -1.103274 3.232272 -0.739387 0.093278 3.735087 1.059011 1.404739 4.168690 0.417225 2.042451 -3.496975 -0.786199 -0.871395 -18.884806 0.000000 0.000000 0.000000 93.009911 -0.325073 9.734649 66.226128 -27.568298 3.812020 0.327996 15.398239 23.471861 5.511936 11.258633 -6.623800 19.719364 30.172752 62.256699 -8.223813 -11.868917 -19.990995 -6.134062 -7.873837 -13.875428 0.000000 0.000000 0.000000 11.907137 -10.913218 0.625236 9.726512 0.390542 1.150453 9.525237 -0.050351 1.119004 0.000000 0.000000 0.000000 11.017007 -5.386710 -0.345604 8.317349 0.452236 0.455159 8.826957 -0.038192 0.392986 0.000000 0.000000 0.000000 10.985006 2.514856 -0.242160 8.488410 -0.924465 -0.739550 8.518928 0.037881 -0.516721 0.000000 0.000000 0.000000 9.564894 11.076460 -1.293676 7.726762 -1.737496 -2.230965 7.565167 0.205565 -1.884994 0.000000 0.000000 0.000000 0.000000 0.000000 0.000000 0.000000 0.000000 0.000000 -89.640678 0.052523 5.897254 -72.498688 16.428215 -5.902681 -0.904511 -11.070316 46.739410 1.744928 -18.992609 -14.279117 -18.337767 -30.589403 63.439831 6.904262 9.249378 -16.001442 5.028185 6.244045 -11.298835 0.000000 0.000000 0.000000 -4.588348 -8.102509 5.892972 -4.384871 0.397357 -1.010450 -4.398993 -0.060304 -0.957001 0.000000 0.000000 0.000000 -4.715171 -2.739489 2.958732 -4.296321 0.447543 -0.442199 -4.314794 -0.038521 -0.352908 0.000000 0.000000 0.000000 -7.710643 5.620595 -0.108044 -5.778949 -0.943933 0.703869 -5.868616 0.032898 0.552302 0.000000 0.000000 0.000000 -10.712279 14.601556 -3.906710 -7.205766 -1.756243 2.351454 -6.981987 0.223591 2.066520 0.000000 0.000000 0.000000 0.000000 0.000000 0.000000 0.000000 0.000000 0.000000 -0.268565 -9.253242 13.161818 -0.049704 -0.655754 4.991391 -2.682650 -8.353563 17.981955 -0.778766 0.782675 -18.800585 0.000000 0.000000 0.000000 0.000000 0.000000 0.000000 0.000000 0.000000 0.000000 -1.428525 -6.147679 8.021571 0.064377 0.333095 9.293779 4.084598 -0.298005 17.506411 0.366388 -0.446472 -20.858107 0.000000 0.000000 0.000000 0.000000 0.000000 0.000000 0.000000 0.000000 0.000000 
0.269073 88.904808 2.955382 -0.346021 -1.300964 -9.218966 0.981726 0.080207 7.084664 -0.616102 0.182279 2.419014 0.362014 -1.113522 3.256257 -0.746609 0.083181 3.723898 1.047172 1.399851 4.160529 0.404364 2.030973 -3.492668 -0.784885 -0.871179 -18.837725 0.000000 0.000000 0.000000 93.052368 -0.336468 9.753593 66.066170 -27.692955 3.906371 0.318919 15.411615 23.564354 5.569806 11.090461 -6.640557 19.732952 30.167414 62.239288 -8.240562 -11.899135 -20.040215 -6.147509 -7.894733 -13.908792 0.000000 0.000000 0.000000 12.048364 -10.926599 0.553934 9.755048 0.385511 1.163216 9.555105 -0.055128 1.131709 0.000000 0.000000 0.000000 11.157730 -5.406738 -0.406170 8.356627 0.450125 0.461800 8.869134 -0.040121 0.398860 0.000000 0.000000 0.000000 11.135300 2.487935 -0.281008 8.551620 -0.921881 -0.745535 8.578844 0.039853 -0.521467 0.000000 0.000000 0.000000 9.712522 11.049594 -1.318416 7.799137 -1.731052 -2.246357 7.632186 0.210382 -1.898661 0.000000 0.000000 0.000000 0.000000 0.000000 0.000000 0.000000 0.000000 0.000000 -89.648087 0.048498 5.931785 -72.483055 16.545303 -5.960152 -0.922444 -10.987172 46.773186 1.586630 -18.983311 -14.282587 -18.361046 -30.579588 63.413353 6.936825 9.302427 -16.078270 5.053801 6.278082 -11.357269 0.000000 0.000000 0.000000 -4.758376 -8.058361 5.747169 -4.385905 0.390663 -1.032575 -4.404276 -0.066509 -0.976919 0.000000 0.000000 0.000000 -4.871055 -2.707574 2.845853 -4.299692 0.444646 -0.450066 -4.314153 -0.040811 -0.360411 0.000000 0.000000 0.000000 -7.834427 5.638172 -0.183637 -5.777449 -0.940929 0.713659 -5.860415 0.035216 0.559599 0.000000 0.000000 0.000000 -10.807276 14.603838 -3.935722 -7.200364 -1.748778 2.369213 -6.979538 0.229893 2.084279 0.000000 0.000000 0.000000 0.000000 0.000000 0.000000 0.000000 0.000000 0.000000 -0.299115 -9.248049 13.185143 -0.050154 -0.656899 4.960904 -2.662784 -8.352654 17.993500 -0.781348 0.785026 -18.798147 0.000000 0.000000 0.000000 0.000000 0.000000 0.000000 0.000000 0.000000 0.000000 -1.455250 -6.123953 8.020831 0.064272 0.334028 9.257440 4.103816 -0.274042 17.537020 0.365052 -0.444630 -20.866409 0.000000 0.000000 0.000000 0.000000 0.000000 0.000000 0.000000 0.000000 0.000000 
